<?xml version="1.0" encoding="utf-8"?>
<svg viewBox="6374.137 1044.287 705.239 1299.215" xmlns="http://www.w3.org/2000/svg">
  <path fill="none" stroke="#2e2e2e" stroke-miterlimit="10" stroke-width="10" d="M4921.411 779.729c0-27.43 63.215-52.426 89.96-53.326 35.788-1.204 49.436 21.972 88.281 21.972 52.444 0 100.552-25.604 100.552-52.122" transform="matrix(1.33333, 0, 0, -1.33333, 0, 2964.73291)"/>
  <path fill="#2e2e2e" d="M4811.443 499.416h474.922L5168.79 732.67l-50.752 14.657-39.763-1.53-33.196-20.266-38.674-4.053-14.53 3.242-11.049 2.432-11.346 5.673-9.725 5.166h-17.83l-3.086 5.66z" transform="matrix(1.33333, 0, 0, -1.33333, 0, 2964.73291)"/>
  <path fill="none" stroke="#2e2e2e" stroke-miterlimit="10" stroke-width="10" d="M4811.443 499.416h474.922L5168.79 732.67l-50.752 14.657-39.763-1.53-33.196-20.266-38.674-4.053-14.53 3.242-11.049 2.432-11.346 5.673-9.725 5.166h-17.83l-3.086 5.66z" transform="matrix(1.33333, 0, 0, -1.33333, 0, 2964.73291)"/>
  <path fill="#2e2e2e" d="M4795.145 494.987h499.868c8.026 0 14.532-6.506 14.532-14.531s-6.507-14.531-14.532-14.531h-499.868c-8.025 0-14.53 6.506-14.53 14.53 0 8.026 6.506 14.532 14.53 14.532" transform="matrix(1.33333, 0, 0, -1.33333, 0, 2964.73291)"/>
  <path fill="none" stroke="#2e2e2e" stroke-miterlimit="10" stroke-width="15" d="M4795.145 494.987h499.868c8.026 0 14.532-6.506 14.532-14.531s-6.507-14.531-14.532-14.531h-499.868c-8.025 0-14.53 6.506-14.53 14.53 0 8.026 6.506 14.532 14.53 14.532Z" transform="matrix(1.33333, 0, 0, -1.33333, 0, 2964.73291)"/>
  <path fill="#2e2e2e" d="M4954.018 1136.832h182.123c8.024 0 14.53-10.025 14.53-22.39 0-12.367-6.506-22.39-14.53-22.39h-182.123c-8.025 0-14.53 10.023-14.53 22.39 0 12.365 6.505 22.39 14.53 22.39" transform="matrix(1.33333, 0, 0, -1.33333, 0, 2964.73291)"/>
  <path fill="none" stroke="#2e2e2e" stroke-miterlimit="10" stroke-width="15" d="M4954.018 1136.832h182.123c8.024 0 14.53-10.025 14.53-22.39 0-12.367-6.506-22.39-14.53-22.39h-182.123c-8.025 0-14.53 10.023-14.53 22.39 0 12.365 6.505 22.39 14.53 22.39Z" transform="matrix(1.33333, 0, 0, -1.33333, 0, 2964.73291)"/>
  <path fill="#2e2e2e" d="M4991.874 918.404v170.983c0 7.535 6.507 13.643 14.532 13.643 8.024 0 14.53-6.108 14.53-13.643V918.404c0-7.534-6.505-13.642-14.53-13.642-8.025 0-14.532 6.108-14.532 13.642" transform="matrix(1.33333, 0, 0, -1.33333, 0, 2964.73291)"/>
  <path fill="none" stroke="#2e2e2e" stroke-miterlimit="10" stroke-width="15" d="M4991.874 918.404v170.983c0 7.535 6.507 13.643 14.532 13.643 8.024 0 14.53-6.108 14.53-13.643V918.404c0-7.534-6.505-13.642-14.53-13.642-8.025 0-14.532 6.108-14.532 13.642Z" transform="matrix(1.33333, 0, 0, -1.33333, 0, 2964.73291)"/>
  <path fill="#2e2e2e" d="M5069.222 918.404v170.983c0 7.535 6.505 13.643 14.531 13.643 8.025 0 14.531-6.108 14.531-13.643V918.404c0-7.534-6.506-13.642-14.53-13.642-8.027 0-14.532 6.108-14.532 13.642" transform="matrix(1.33333, 0, 0, -1.33333, 0, 2964.73291)"/>
  <path fill="none" stroke="#2e2e2e" stroke-miterlimit="10" stroke-width="15" d="M5069.222 918.404v170.983c0 7.535 6.505 13.643 14.531 13.643 8.025 0 14.531-6.108 14.531-13.643V918.404c0-7.534-6.506-13.642-14.53-13.642-8.027 0-14.532 6.108-14.532 13.642Z" transform="matrix(1.33333, 0, 0, -1.33333, 0, 2964.73291)"/>
  <path fill="#2e2e2e" d="m5281.84 474.01-211.253 436.425c-3.392 7.007-.245 15.336 7.028 18.603 7.273 3.267 15.92.236 19.311-6.77l211.253-436.426c3.391-7.007.245-15.336-7.028-18.603-7.274-3.267-15.919-.236-19.31 6.771" transform="matrix(1.33333, 0, 0, -1.33333, 0, 2964.73291)"/>
  <path fill="none" stroke="#2e2e2e" stroke-miterlimit="10" stroke-width="15" d="m5281.84 474.01-211.253 436.425c-3.392 7.007-.245 15.336 7.028 18.603 7.273 3.267 15.92.236 19.311-6.77l211.253-436.426c3.391-7.007.245-15.336-7.028-18.603-7.274-3.267-15.919-.236-19.31 6.771Z" transform="matrix(1.33333, 0, 0, -1.33333, 0, 2964.73291)"/>
  <path fill="#2e2e2e" d="m4808.318 474.01 211.253 436.425c3.392 7.007.245 15.336-7.028 18.603-7.273 3.267-15.919.236-19.31-6.77l-211.254-436.426c-3.39-7.007-.245-15.336 7.028-18.603 7.274-3.267 15.92-.236 19.311 6.771" transform="matrix(1.33333, 0, 0, -1.33333, 0, 2964.73291)"/>
  <path fill="none" stroke="#2e2e2e" stroke-miterlimit="10" stroke-width="15" d="m4808.318 474.01 211.253 436.425c3.392 7.007.245 15.336-7.028 18.603-7.273 3.267-15.919.236-19.31-6.77l-211.254-436.426c-3.39-7.007-.245-15.336 7.028-18.603 7.274-3.267 15.92-.236 19.311 6.771Z" transform="matrix(1.33333, 0, 0, -1.33333, 0, 2964.73291)"/>
  <path fill="#2e2e2e" d="M5118.88 1241.93c0-15.092-12.234-27.325-27.325-27.325-15.09 0-27.324 12.233-27.324 27.324 0 15.091 12.233 27.324 27.324 27.324 15.091 0 27.324-12.233 27.324-27.324" transform="matrix(1.33333, 0, 0, -1.33333, 0, 2964.73291)"/>
  <path fill="none" stroke="#2e2e2e" stroke-miterlimit="10" stroke-width="20" d="M5118.88 1241.93c0-15.092-12.234-27.325-27.325-27.325-15.09 0-27.324 12.233-27.324 27.324 0 15.091 12.233 27.324 27.324 27.324 15.091 0 27.324-12.233 27.324-27.324Z" transform="matrix(1.33333, 0, 0, -1.33333, 0, 2964.73291)"/>
  <path fill="#2e2e2e" d="M5015.872 1318.69c0-22.47-18.216-40.688-40.688-40.688-22.471 0-40.687 18.217-40.687 40.688 0 22.471 18.216 40.688 40.687 40.688 22.472 0 40.688-18.217 40.688-40.688" transform="matrix(1.33333, 0, 0, -1.33333, 0, 2964.73291)"/>
  <path fill="none" stroke="#2e2e2e" stroke-miterlimit="10" stroke-width="20" d="M5015.872 1318.69c0-22.47-18.216-40.688-40.688-40.688-22.471 0-40.687 18.217-40.687 40.688 0 22.471 18.216 40.688 40.687 40.688 22.472 0 40.688-18.217 40.688-40.688Z" transform="matrix(1.33333, 0, 0, -1.33333, 0, 2964.73291)"/>
  <path fill="#2e2e2e" d="M5155.663 1388.152c0-28.822-23.365-52.186-52.187-52.186-28.821 0-52.186 23.364-52.186 52.186s23.365 52.186 52.186 52.186c28.822 0 52.187-23.364 52.187-52.186" transform="matrix(1.33333, 0, 0, -1.33333, 0, 2964.73291)"/>
  <path fill="none" stroke="#2e2e2e" stroke-miterlimit="10" stroke-width="20" d="M5155.663 1388.152c0-28.822-23.365-52.186-52.187-52.186-28.821 0-52.186 23.364-52.186 52.186s23.365 52.186 52.186 52.186c28.822 0 52.187-23.364 52.187-52.186Z" transform="matrix(1.33333, 0, 0, -1.33333, 0, 2964.73291)"/>
</svg>