<?xml version="1.0" encoding="utf-8"?>
<svg viewBox="420.288 618.651 6659.088 1735.916" xmlns="http://www.w3.org/2000/svg">
  <defs>
    <clipPath id="a" clipPathUnits="userSpaceOnUse">
      <path d="M0 2223.551h5636.224V0H0Z"/>
    </clipPath>
  </defs>
  <g clip-path="url(#a)" transform="matrix(1.33333, 0, 0, -1.33333, 0, 2964.73291)">
    <path fill="none" stroke="#2e2e2e" stroke-miterlimit="10" stroke-width="10" d="M4921.411 779.729c0-27.43 63.215-52.426 89.96-53.326 35.788-1.204 49.436 21.972 88.281 21.972 52.444 0 100.552-25.604 100.552-52.122"/>
    <path fill="#2e2e2e" d="M4811.443 499.416h474.922L5168.79 732.67l-50.752 14.657-39.763-1.53-33.196-20.266-38.674-4.053-14.53 3.242-11.049 2.432-11.346 5.673-9.725 5.166h-17.83l-3.086 5.66z"/>
    <path fill="none" stroke="#2e2e2e" stroke-miterlimit="10" stroke-width="10" d="M4811.443 499.416h474.922L5168.79 732.67l-50.752 14.657-39.763-1.53-33.196-20.266-38.674-4.053-14.53 3.242-11.049 2.432-11.346 5.673-9.725 5.166h-17.83l-3.086 5.66z"/>
    <path fill="#2e2e2e" d="M4795.145 494.987h499.868c8.026 0 14.532-6.506 14.532-14.531s-6.507-14.531-14.532-14.531h-499.868c-8.025 0-14.53 6.506-14.53 14.53 0 8.026 6.506 14.532 14.53 14.532"/>
    <path fill="none" stroke="#2e2e2e" stroke-miterlimit="10" stroke-width="15" d="M4795.145 494.987h499.868c8.026 0 14.532-6.506 14.532-14.531s-6.507-14.531-14.532-14.531h-499.868c-8.025 0-14.53 6.506-14.53 14.53 0 8.026 6.506 14.532 14.53 14.532Z"/>
    <path fill="#2e2e2e" d="M4954.018 1136.832h182.123c8.024 0 14.53-10.025 14.53-22.39 0-12.367-6.506-22.39-14.53-22.39h-182.123c-8.025 0-14.53 10.023-14.53 22.39 0 12.365 6.505 22.39 14.53 22.39"/>
    <path fill="none" stroke="#2e2e2e" stroke-miterlimit="10" stroke-width="15" d="M4954.018 1136.832h182.123c8.024 0 14.53-10.025 14.53-22.39 0-12.367-6.506-22.39-14.53-22.39h-182.123c-8.025 0-14.53 10.023-14.53 22.39 0 12.365 6.505 22.39 14.53 22.39Z"/>
    <path fill="#2e2e2e" d="M4991.874 918.404v170.983c0 7.535 6.507 13.643 14.532 13.643 8.024 0 14.53-6.108 14.53-13.643V918.404c0-7.534-6.505-13.642-14.53-13.642-8.025 0-14.532 6.108-14.532 13.642"/>
    <path fill="none" stroke="#2e2e2e" stroke-miterlimit="10" stroke-width="15" d="M4991.874 918.404v170.983c0 7.535 6.507 13.643 14.532 13.643 8.024 0 14.53-6.108 14.53-13.643V918.404c0-7.534-6.505-13.642-14.53-13.642-8.025 0-14.532 6.108-14.532 13.642Z"/>
    <path fill="#2e2e2e" d="M5069.222 918.404v170.983c0 7.535 6.505 13.643 14.531 13.643 8.025 0 14.531-6.108 14.531-13.643V918.404c0-7.534-6.506-13.642-14.53-13.642-8.027 0-14.532 6.108-14.532 13.642"/>
    <path fill="none" stroke="#2e2e2e" stroke-miterlimit="10" stroke-width="15" d="M5069.222 918.404v170.983c0 7.535 6.505 13.643 14.531 13.643 8.025 0 14.531-6.108 14.531-13.643V918.404c0-7.534-6.506-13.642-14.53-13.642-8.027 0-14.532 6.108-14.532 13.642Z"/>
    <path fill="#2e2e2e" d="m5281.84 474.01-211.253 436.425c-3.392 7.007-.245 15.336 7.028 18.603 7.273 3.267 15.92.236 19.311-6.77l211.253-436.426c3.391-7.007.245-15.336-7.028-18.603-7.274-3.267-15.919-.236-19.31 6.771"/>
    <path fill="none" stroke="#2e2e2e" stroke-miterlimit="10" stroke-width="15" d="m5281.84 474.01-211.253 436.425c-3.392 7.007-.245 15.336 7.028 18.603 7.273 3.267 15.92.236 19.311-6.77l211.253-436.426c3.391-7.007.245-15.336-7.028-18.603-7.274-3.267-15.919-.236-19.31 6.771Z"/>
    <path fill="#2e2e2e" d="m4808.318 474.01 211.253 436.425c3.392 7.007.245 15.336-7.028 18.603-7.273 3.267-15.919.236-19.31-6.77l-211.254-436.426c-3.39-7.007-.245-15.336 7.028-18.603 7.274-3.267 15.92-.236 19.311 6.771"/>
    <path fill="none" stroke="#2e2e2e" stroke-miterlimit="10" stroke-width="15" d="m4808.318 474.01 211.253 436.425c3.392 7.007.245 15.336-7.028 18.603-7.273 3.267-15.919.236-19.31-6.77l-211.254-436.426c-3.39-7.007-.245-15.336 7.028-18.603 7.274-3.267 15.92-.236 19.311 6.771Z"/>
    <path fill="#2e2e2e" d="M5118.88 1241.93c0-15.092-12.234-27.325-27.325-27.325-15.09 0-27.324 12.233-27.324 27.324 0 15.091 12.233 27.324 27.324 27.324 15.091 0 27.324-12.233 27.324-27.324"/>
    <path fill="none" stroke="#2e2e2e" stroke-miterlimit="10" stroke-width="20" d="M5118.88 1241.93c0-15.092-12.234-27.325-27.325-27.325-15.09 0-27.324 12.233-27.324 27.324 0 15.091 12.233 27.324 27.324 27.324 15.091 0 27.324-12.233 27.324-27.324Z"/>
    <path fill="#2e2e2e" d="M5015.872 1318.69c0-22.47-18.216-40.688-40.688-40.688-22.471 0-40.687 18.217-40.687 40.688 0 22.471 18.216 40.688 40.687 40.688 22.472 0 40.688-18.217 40.688-40.688"/>
    <path fill="none" stroke="#2e2e2e" stroke-miterlimit="10" stroke-width="20" d="M5015.872 1318.69c0-22.47-18.216-40.688-40.688-40.688-22.471 0-40.687 18.217-40.687 40.688 0 22.471 18.216 40.688 40.687 40.688 22.472 0 40.688-18.217 40.688-40.688Z"/>
    <path fill="#2e2e2e" d="M5155.663 1388.152c0-28.822-23.365-52.186-52.187-52.186-28.821 0-52.186 23.364-52.186 52.186s23.365 52.186 52.186 52.186c28.822 0 52.187-23.364 52.187-52.186"/>
    <path fill="none" stroke="#2e2e2e" stroke-miterlimit="10" stroke-width="20" d="M5155.663 1388.152c0-28.822-23.365-52.186-52.187-52.186-28.821 0-52.186 23.364-52.186 52.186s23.365 52.186 52.186 52.186c28.822 0 52.187-23.364 52.187-52.186Z"/>
    <path fill="#2e2e2e" d="M2063.417 457.627v1301.939h260.62V746.564h268.921V457.627ZM3002.77 1487.827h-18.26l-41.5-466.084h102.92Zm76.36-1030.2-21.58 300.977h-126.16l-19.92-300.977h-262.28l134.46 1301.939h438.24l126.16-1301.94ZM3747.904 720.766c51.46 0 73.04 24.078 73.04 123.83 0 118.671-18.26 165.107-66.4 165.107h-89.64V720.766Zm-6.64 503.921c49.8 0 66.4 32.678 66.4 149.629 0 103.191-21.58 127.27-73.04 127.27h-69.72v-276.899Zm-336.98-767.06v1301.939h373.5c224.1 0 292.16-99.752 292.16-350.853 0-189.185-21.58-225.302-87.98-273.458v-12.04c66.4-42.996 104.58-48.156 104.58-314.735 0-251.1-61.42-350.852-285.52-350.852zM4527.897 1347.202c1.66 16.628 1.66 24.94 1.66 54.87 0 78.15-13.28 103.092-76.36 103.092s-74.7-24.941-74.7-103.091c0-73.161 18.26-93.114 59.76-118.056 99.6-58.196 166-73.161 230.74-116.393 73.04-51.545 106.24-109.742 106.24-319.25 0-299.295-74.7-390.747-328.68-390.747-207.5 0-302.12 68.173-302.12 266.04 0 63.186 3.32 136.347 13.28 176.253h217.46c-3.32-13.302-3.32-28.266-3.32-46.557 0-96.44 13.28-128.032 79.68-128.032s81.34 21.616 81.34 128.032c0 64.848-18.26 89.789-63.08 121.38-81.34 54.872-185.92 79.814-253.98 141.336-68.06 59.859-73.04 159.624-73.04 325.9 0 236.112 63.08 317.587 310.42 317.587 224.1 0 303.78-64.848 303.78-277.681 0-68.173-3.32-103.091-13.28-134.683Z"/>
    <path fill="#6e3ecd" d="M770.912 1340.871h-64.71v-222.665h64.71c30.814 0 53.924 9.77 69.33 29.332 15.408 19.541 23.11 47.543 23.11 84.001 0 34.664-7.702 61.538-23.11 80.666-15.406 19.102-38.516 28.666-69.33 28.666"/>
    <path fill="none" stroke="#6e3ecd" stroke-miterlimit="10" d="M770.912 1340.871h-64.71v-222.665h64.71c30.814 0 53.924 9.77 69.33 29.332 15.408 19.541 23.11 47.543 23.11 84.001 0 34.664-7.702 61.538-23.11 80.666-15.406 19.102-38.516 28.666-69.33 28.666Z"/>
    <path fill="#6e3ecd" d="M1479.618 1340.871h-79.089v-224h79.089c32.867 0 57.167 9.772 72.925 29.333 15.745 19.544 23.624 48.001 23.624 85.335 0 72.873-32.193 109.332-96.549 109.332"/>
    <path fill="none" stroke="#6e3ecd" stroke-miterlimit="10" d="M1479.618 1340.871h-79.089v-224h79.089c32.867 0 57.167 9.772 72.925 29.333 15.745 19.544 23.624 48.001 23.624 85.335 0 72.873-32.193 109.332-96.549 109.332Z"/>
    <path fill="#6e3ecd" d="M1801.11 640.875h-240.35L1460.1 883.54h-59.571V663.541l-17.463-22.666h-203.37l-17.462 22.666v887.996l18.488 24h328.682c97.916 0 173.586-28.896 226.996-86.666 53.41-57.792 80.117-140.458 80.117-248 0-68.457-9.936-128-29.788-178.664-19.868-50.667-51.711-91.125-95.524-121.334l128.39-275.998Zm-777.526 335.997c-51.357-62.229-123.945-93.332-217.751-93.332h-99.631V664.875l-17.461-24H485.369l-17.461 22.666v889.327l18.487 22.67h319.438c93.806 0 166.394-28.897 217.75-86.667 51.358-57.792 77.035-140.458 77.035-248 0-113.792-25.677-201.789-77.034-263.999M315.218 457.627h1657.069v1301.158H315.217z"/>
    <path fill="none" stroke="#6e3ecd" stroke-miterlimit="10" d="M1801.11 640.875h-240.35L1460.1 883.54h-59.571V663.541l-17.463-22.666h-203.37l-17.462 22.666v887.996l18.488 24h328.682c97.916 0 173.586-28.896 226.996-86.666 53.41-57.792 80.117-140.458 80.117-248 0-68.457-9.936-128-29.788-178.664-19.868-50.667-51.711-91.125-95.524-121.334l128.39-275.998Zm-777.526 335.997c-51.357-62.229-123.945-93.332-217.751-93.332h-99.631V664.875l-17.461-24H485.369l-17.461 22.666v889.327l18.487 22.67h319.438c93.806 0 166.394-28.897 217.75-86.667 51.358-57.792 77.035-140.458 77.035-248 0-113.792-25.677-201.789-77.034-263.999zM315.218 457.627h1657.069v1301.158H315.217z"/>
  </g>
</svg>